# xmcd
#
# Track frame offsets:
#	150
#	19288
#	34525
#	40288
#	48447
#	54934
#	64431
#	76603
#	85710
#	95597
#	106337
#	114162
#	122823
#	133769
#	143377
#	155158
#	167385
#	178832
#	190613
#	196209
#	211630
#	229419
#	248369
#
# Disc length: 3570 seconds
#
# Revision: 0
# Processed by: cddbd v1.5.2PL0 Copyright (c) Steve Scherf et al.
# Submitted via: dBpowerAMP V4.0
#
DISCID=250df017
DTITLE=Spécial blues - Je suis guitariste
DYEAR=1900
DGENRE=Blues
TTITLE0=01_The Jack - AAC DC
TTITLE1=02_I got the blues - Yhe Rolling Stones
TTITLE2=03_Where did you sleep last night - Nirvana
TTITLE3=04_Cocaine - Eric Clapton
TTITLE4=05_Nightime is the right time - Creedence Clearwater Revival
TTITLE5=Steamy windows - Tony Joe White
TTITLE6=07_Roadrunner - Aerosmith
TTITLE7=08_Muddy Woter Blues - Paul Rodgers
TTITLE8=09_La grange - ZZ Top
TTITLE9=10_Sunshine of your love - Cream
TTITLE10=11_Blues boy - Thin Lizzy
TTITLE11=12_Long grey more - Gary Moore
TTITLE12=13_Crossroads blues - Robert Johnson
TTITLE13=14_All your love - John Mayall
TTITLE14=15_City of gold - Bruce Baker Moore
TTITLE15=16_Good morning little Schnolgirl - Sonny Boy Williamson
TTITLE16=17_Swet home Chicago - The Blues Brothers
TTITLE17=18_Boom boom boom - John Lee Hooker
TTITLE18=19_Roadhouse Blues - The Doors
TTITLE19=20_Susie Q - John Fogerty
TTITLE20=21_Bonus1
TTITLE21=22_Bonus2
TTITLE22=23_Bonus3
EXTD=
EXTT0=
EXTT1=
EXTT2=
EXTT3=
EXTT4=
EXTT5=
EXTT6=
EXTT7=
EXTT8=
EXTT9=
EXTT10=
EXTT11=
EXTT12=
EXTT13=
EXTT14=
EXTT15=
EXTT16=
EXTT17=
EXTT18=
EXTT19=
EXTT20=
EXTT21=
EXTT22=
PLAYORDER=
